<?xml version="1.0" encoding="UTF-8"?>
<svg width="128px" height="128px" viewBox="0 0 128 128" version="1.1" xmlns="http://www.w3.org/2000/svg" xmlns:xlink="http://www.w3.org/1999/xlink">
    <path d="M120.764768,32.6630774 C117.723798,21.6550774 107.587232,13.5910774 95.5500606,14.1030774 C85.6669091,14.4870774 77.0508283,21.0150774 73.3763232,29.8470774 C70.7154747,28.0550774 67.4210909,27.0310774 64,27.0310774 C60.5789091,27.0310774 57.4112323,28.0550774 54.6236768,29.8470774 C50.8224646,20.6310774 41.8262626,14.1030774 31.4362828,14.1030774 C19.9059394,14.1030774 10.276202,21.9110774 7.23523232,32.6630774 C6.72840404,34.3270774 5.20791919,35.4790774 3.56072727,35.4790774 L1.28,35.4790774 L1.28,43.4150774 L3.56072727,43.4150774 C5.33462626,43.4150774 6.85511111,44.5670774 7.23523232,46.2310774 C10.276202,57.2390774 20.4127677,65.3030774 32.4499394,64.7910774 C44.8672323,64.2790774 55.2572121,54.2950774 56.3975758,41.7510774 C57.5379394,38.6790774 60.5789091,36.5030774 64,36.5030774 C67.4210909,36.5030774 70.3353535,38.6790774 71.6024242,41.6230774 C72.7427879,54.5510774 83.5128889,64.7910774 96.5637172,64.7910774 C108.094061,64.7910774 117.723798,56.9830774 120.764768,46.2310774 C121.271596,44.5670774 122.792081,43.4150774 124.439273,43.4150774 L126.72,43.4150774 L126.72,35.4790774 L124.439273,35.4790774 C122.792081,35.4790774 121.144889,34.3270774 120.764768,32.6630774 Z M31.4362828,57.1110774 C21.8065455,57.1110774 13.9507071,49.1750774 13.9507071,39.4470774 C13.9507071,29.7190774 21.8065455,21.7830774 31.4362828,21.7830774 C41.0660202,21.7830774 48.9218586,29.7190774 48.9218586,39.4470774 C48.9218586,49.1750774 41.0660202,57.1110774 31.4362828,57.1110774 Z M96.5637172,57.1110774 C86.9339798,57.1110774 79.0781414,49.1750774 79.0781414,39.4470774 C79.0781414,29.7190774 86.9339798,21.7830774 96.5637172,21.7830774 C106.193455,21.7830774 114.049293,29.7190774 114.049293,39.4470774 C114.049293,49.1750774 106.193455,57.1110774 96.5637172,57.1110774 Z M125.851607,88.855838 C122.810637,98.327838 114.954799,113.559838 95.6953242,114.583838 C80.3637686,115.351838 69.8470818,108.311838 64.3986777,100.503838 C58.9502737,108.311838 48.4335868,115.351838 33.1020313,114.583838 C13.8425565,113.687838 5.98671814,98.455838 2.94574844,88.855838 C2.6923343,88.087838 1.55197066,84.119838 4.97306157,86.295838 C5.35318278,86.551838 5.73330399,86.807838 6.11342521,87.191838 C6.11342521,87.191838 6.11342521,87.191838 6.11342521,87.191838 L6.11342521,87.191838 C8.14073834,88.471838 10.8015868,89.495838 14.3493848,89.751838 C24.7393646,90.263838 33.9889808,72.215838 48.5602939,72.983838 C52.361506,73.111838 57.4297888,74.007838 64.3986777,81.047838 C71.3675666,74.007838 76.5625565,73.111838 80.2370616,72.983838 C94.8083747,72.215838 103.931284,90.391838 114.447971,89.751838 C117.995769,89.623838 120.783324,88.471838 122.68393,87.191838 L122.68393,87.191838 C122.68393,87.191838 122.68393,87.191838 122.68393,87.191838 C123.064051,86.935838 123.444173,86.679838 123.824294,86.295838 C127.245385,84.119838 126.105021,88.087838 125.851607,88.855838 Z" id="Shape" fill="#EEEEEE"></path>
</svg>
