<?xml version="1.0" encoding="UTF-8"?>
<svg width="19px" height="26px" viewBox="0 0 19 26" version="1.1" xmlns="http://www.w3.org/2000/svg" xmlns:xlink="http://www.w3.org/1999/xlink">
    <title>camelcase_logo</title>
    <g id="Page-4" stroke="none" stroke-width="1" fill="none" fill-rule="evenodd">
        <g id="Artboard" transform="translate(-3.000000, -1.000000)" fill="#FFFFFF" fill-rule="nonzero" stroke="#000000">
            <g id="camelcase_logo" transform="translate(3.000000, 2.000000)">
                <path d="M9.66243,24.3511 L17.6755,14.2309 C17.8052,14.067 17.6885,13.8257 17.4795,13.8257 L0.907031,13.8257 C0.694218,13.8257 0.57872,14.0746 0.716149,14.2371 L9.27554,24.3574 C9.37753,24.478 9.56439,24.475 9.66243,24.3511 Z" id="Path"></path>
                <path d="M17.5745,13.3587 L9.44746,9.4872 C9.30597,9.4197 9.14105,9.4226 9.00196,9.4948 L0.999407,13.6513 C0.650668,13.8324 0.637574,14.3265 0.976231,14.5259 L8.96405,19.2278 C9.1233,19.3216 9.32127,19.3198 9.47885,19.2233 L17.6206,14.2365 C17.9589,14.0293 17.9327,13.5294 17.5745,13.3587 Z" id="Path"></path>
                <path d="M9.66243,14.971 L17.6755,4.85075 C17.8052,4.68686 17.6885,4.44556 17.4795,4.44556 L0.907031,4.44556 C0.694218,4.44556 0.57872,4.69451 0.716149,4.857 L9.27554,14.9773 C9.37753,15.0979 9.56439,15.0948 9.66243,14.971 Z" id="Path"></path>
                <path d="M17.5745,3.97862 L9.44746,0.10703 C9.30597,0.03962 9.14105,0.04246 9.00196,0.1147 L0.999407,4.27113 C0.650668,4.45226 0.637574,4.9464 0.976231,5.14574 L8.96405,9.8477 C9.1233,9.9414 9.32127,9.9397 9.47885,9.8432 L17.6206,4.85639 C17.9589,4.64915 17.9327,4.14926 17.5745,3.97862 Z" id="Path"></path>
            </g>
        </g>
    </g>
</svg>